<svg id="Layer_1" data-name="Layer 1" xmlns="http://www.w3.org/2000/svg" viewBox="0 0 212 171"><defs><style>.cls-1,.cls-2{fill:#f2f2aa;}.cls-1,.cls-3{stroke:#000;stroke-width:2px;}.cls-1{stroke-miterlimit:10;}.cls-3{fill:none;}</style></defs><g id="Group_121" data-name="Group 121"><g id="Group_120" data-name="Group 120"><g id="Subtraction_3" data-name="Subtraction 3"><path class="cls-1" d="M6.79,120.08a80.06,80.06,0,0,1,.26-35.46,82.57,82.57,0,0,1,6.1-17.06,88.18,88.18,0,0,1,9.67-15.45A95.64,95.64,0,0,1,35.63,38.64,103.52,103.52,0,0,1,51.17,27.51,111.14,111.14,0,0,1,69,19.1a116.41,116.41,0,0,1,19.73-5.31,121.58,121.58,0,0,1,42.37,0,116.41,116.41,0,0,1,19.73,5.31,111.14,111.14,0,0,1,17.84,8.41,103,103,0,0,1,15.54,11.13A95.1,95.1,0,0,1,197,52.11a87.81,87.81,0,0,1,9.67,15.45,82.57,82.57,0,0,1,6.1,17.06,79.67,79.67,0,0,1,.26,35.46,87,87,0,0,0-12.79-25,99.13,99.13,0,0,0-23.43-22.72,111.9,111.9,0,0,0-30.84-15,122.77,122.77,0,0,0-72.15,0A111.9,111.9,0,0,0,43,72.36,99.13,99.13,0,0,0,19.58,95.08,87,87,0,0,0,6.79,120.08Z" transform="translate(-3.93 -10.93)"/></g></g><g id="Subtraction_2" data-name="Subtraction 2"><path class="cls-1" d="M41.79,141.84A46.66,46.66,0,0,1,39,125.93a47.15,47.15,0,0,1,5.54-22.11A55,55,0,0,1,51,94.15a61.85,61.85,0,0,1,8.65-8.45,70,70,0,0,1,10.49-7,77.21,77.21,0,0,1,12.07-5.28,87.17,87.17,0,0,1,55.35,0,77.21,77.21,0,0,1,12.07,5.28,70,70,0,0,1,10.49,7,62.39,62.39,0,0,1,8.65,8.45,55,55,0,0,1,6.51,9.67,47.27,47.27,0,0,1,5.54,22.11,46.56,46.56,0,0,1-2.8,15.9,56.82,56.82,0,0,0-9.44-13.93,68.22,68.22,0,0,0-15.79-12.69,80.37,80.37,0,0,0-20-8.3,89.82,89.82,0,0,0-45.89,0,80.37,80.37,0,0,0-20,8.3A68.22,68.22,0,0,0,51.23,127.9,56.6,56.6,0,0,0,41.79,141.84Z" transform="translate(-3.93 -10.93)"/></g><g id="Ellipse_23" data-name="Ellipse 23"><circle class="cls-2" cx="106" cy="142" r="29"/><circle class="cls-3" cx="106" cy="142" r="28"/></g></g></svg>