<svg id="Layer_1" data-name="Layer 1" xmlns="http://www.w3.org/2000/svg" viewBox="0 0 126.61 189.63"><defs><style>.cls-1,.cls-2,.cls-4{fill:none;stroke-linecap:round;stroke-linejoin:round;}.cls-1,.cls-2,.cls-3,.cls-4{stroke:#231f20;}.cls-1{stroke-width:2px;}.cls-2,.cls-3{stroke-width:2.16px;}.cls-3{fill:#f2f2aa;stroke-miterlimit:10;}.cls-4{stroke-width:1.77px;}</style></defs><g id="Group_64" data-name="Group 64"><g id="Group_58" data-name="Group 58"><g id="Group_57" data-name="Group 57"><path id="Path_183" data-name="Path 183" class="cls-1" d="M7.88,105.19q62.29,72.72,124.61,0Q70.18,32.46,7.88,105.19Z" transform="translate(-6.88 -10.37)"/><g id="Group_56" data-name="Group 56"><circle id="Ellipse_20" data-name="Ellipse 20" class="cls-2" cx="63.3" cy="94.78" r="36.28"/><g id="Group_55" data-name="Group 55"><path id="Path_184" data-name="Path 184" class="cls-3" d="M83.27,71.23a34.38,34.38,0,0,0,2.8,66.65,36.34,36.34,0,1,1-2.8-66.65Z" transform="translate(-6.88 -10.37)"/><path id="Path_185" data-name="Path 185" class="cls-3" d="M83.27,71.29a34.38,34.38,0,0,0,2.8,66.64,36.34,36.34,0,1,1-2.8-66.64Z" transform="translate(-6.88 -10.37)"/></g></g></g><path id="Path_186" data-name="Path 186" class="cls-1" d="M80.52,113.67l8.61-17.91,4.23,18.8L80.52,102.33,97,100.65Z" transform="translate(-6.88 -10.37)"/></g><g id="Group_59" data-name="Group 59"><line id="Line_14" data-name="Line 14" class="cls-1" x1="63.3" y1="50.86" x2="63.3" y2="1"/><line id="Line_15" data-name="Line 15" class="cls-1" x1="63.3" y1="188.63" x2="63.3" y2="138.77"/></g><g id="Group_60" data-name="Group 60"><line id="Line_16" data-name="Line 16" class="cls-1" x1="35.07" y1="168.19" x2="47.41" y2="136.35"/><line id="Line_17" data-name="Line 17" class="cls-1" x1="79.19" y1="54.38" x2="91.53" y2="22.55"/></g><g id="Group_61" data-name="Group 61"><line id="Line_18" data-name="Line 18" class="cls-1" x1="91.53" y1="168.19" x2="79.19" y2="136.35"/><line id="Line_19" data-name="Line 19" class="cls-1" x1="47.41" y1="54.38" x2="35.07" y2="22.55"/></g><g id="Group_62" data-name="Group 62"><line id="Line_20" data-name="Line 20" class="cls-4" x1="109.89" y1="152.6" x2="93.04" y2="131.89"/><line id="Line_21" data-name="Line 21" class="cls-4" x1="33.76" y1="59.07" x2="16.9" y2="38.37"/></g><g id="Group_63" data-name="Group 63"><line id="Line_22" data-name="Line 22" class="cls-4" x1="16.9" y1="152.6" x2="33.76" y2="131.89"/><line id="Line_23" data-name="Line 23" class="cls-4" x1="93.04" y1="59.07" x2="109.89" y2="38.37"/></g></g></svg>