<svg id="Layer_1" data-name="Layer 1" xmlns="http://www.w3.org/2000/svg" viewBox="0 0 225.91 185.4"><defs><style>.cls-1{fill:#e7daf2;}.cls-2,.cls-4,.cls-6,.cls-8,.cls-9{fill:none;}.cls-2,.cls-4,.cls-6,.cls-8{stroke:#231f20;stroke-linecap:round;stroke-linejoin:round;}.cls-2{stroke-width:2.41px;}.cls-3{fill:#b8efac;}.cls-4{stroke-width:2px;}.cls-5{fill:#f2f2aa;}.cls-6{stroke-width:2.71px;}.cls-7{fill:#d4abf4;}.cls-8{stroke-width:2.45px;}.cls-10{fill:#deefda;}</style></defs><g id="Group_37" data-name="Group 37"><path id="Path_83" data-name="Path 83" class="cls-1" d="M221,131.46l-8.85-5.14,9.91-.21,1.36-6.86,2.69,6.77,4.32-.09-2.88,3.73,2.88,7.28-5.86-3.41-5.36,6.95Z" transform="translate(-16.31 -1.47)"/><path id="Path_84" data-name="Path 84" class="cls-2" d="M228.24,135.8l-7-17.69L217,139.34l11.23-14.54-18.28.39Z" transform="translate(-16.31 -1.47)"/><path id="Path_85" data-name="Path 85" class="cls-3" d="M183,89.71,181.59,88l2.3-.16,1-2.05.24,2,3.39-.24L185.43,90l.39,3.26L184,91l-2.84,2.19Z" transform="translate(-16.31 -1.47)"/><path id="Path_86" data-name="Path 86" class="cls-4" d="M184.5,92.23l-.89-7.39-3.74,7.39,7.37-5.67-7,.5Z" transform="translate(-16.31 -1.47)"/><g id="Group_34" data-name="Group 34"><path id="Path_87" data-name="Path 87" class="cls-5" d="M237.14,67.52l1.19-3.67.68,3.67h3.2l-2.69,2.78,1.4,7.58L237,72.93,234.6,75.4l1.26-3.89-3.17-4Z" transform="translate(-16.31 -1.47)"/><path id="Path_88" data-name="Path 88" class="cls-6" d="M239.38,76.56l-2.6-14-3.73,11.55,7.61-7.87h-9.52Z" transform="translate(-16.31 -1.47)"/></g><path id="Path_89" data-name="Path 89" class="cls-7" d="M167.16,112.42l-5.45-2.5,6.88-1.55,1.46-4.12,1.24,3.52,6.75-1.52-5.72,4.45,1.73,4.89-5-2.31-3,2.31Z" transform="translate(-16.31 -1.47)"/><path id="Path_90" data-name="Path 90" class="cls-8" d="M172.38,114.39l-4-11.34-4,11.34,12-9.34-16.33,3.67Z" transform="translate(-16.31 -1.47)"/><path id="Path_91" data-name="Path 91" class="cls-9" d="M185.79,23.55a50.22,50.22,0,0,1-3-5l0,0c-.15.95-.27,1.79-2.82,3.17l-.06,0q.9,1,1.89,2.13a55.87,55.87,0,0,1,3,13.69l.1-.1a5.72,5.72,0,0,1,2.9-1.09C184.28,30.93,185.79,25.47,185.79,23.55Z" transform="translate(-16.31 -1.47)"/><path id="Path_92" data-name="Path 92" class="cls-9" d="M170.18,28.26h0l-.52.27c-2.34,1.18-8.92,6.28-10.36,6.4l4.15,2c5.79-1.1,6.88-.34,7.55-.42h0c.31-1.87,1-3.82,2.38-4.8A25.51,25.51,0,0,1,170.18,28.26Z" transform="translate(-16.31 -1.47)"/><g id="Group_35" data-name="Group 35"><path id="Path_93" data-name="Path 93" class="cls-10" d="M238.56,38.18s-.26-9.88-17.46-2.48c.73-2.32,1.09-3.73,1.09-3.73s1.09-1.64.82-6.83c.13-5.46,2.51-16.74,0-15.7-8.24-2.32-12.47,10.1-9.05,17.89,0,0-7.24,7.64-8.2,13.93,0,0-.58-1.09-2.2-.14-.86-5.32-2.64-12.58-4.21-15.84-1.78-3.69-2.19-5.6-4.51-7.78s-9.42-16-9.56-12.84c-.75.19-4.47,2.32-3.25,8.83l-.5-1.38c-3-.12-3.6,1.29-7.87,3.07l-.21.12c-4-3.19-3.55-.8-3.55-.8a10.43,10.43,0,0,0-1.67,3.76h0c-3.77,2.2-10.11,1.87-21.27,3.29-26.41.94-37.35,13.27-37.35,13.27h0c-7,2.22-14.09,8.1-17.93,13.32C85,63.89,19.6,108.26,19.6,108.26L50.69,147h0C116,58.38,128.83,68.25,145.26,66.75c10.52.68,14.76-.14,17-1.42a16.13,16.13,0,0,0,7.32-.88s4,.7,10.79-3c6.42-1.1,19.39-1.37,22.8-3.55,2.33-.59,7-.58,10.91-6.12h0S226.3,45,230.22,42C233,41,240,38.65,238.56,38.18Zm-65.84.06h0c-.67.08-1.76-.68-7.55.42l-4.15-2c1.44-.12,8-5.22,10.36-6.4l.52-.27h0a26.2,26.2,0,0,0,3.2,3.46c-1.4,1-2.06,2.92-2.38,4.79Zm13.94,1-.1.1a55.41,55.41,0,0,0-3-13.69q-1-1.14-1.89-2.13l.06,0c2.55-1.39,2.67-2.22,2.82-3.17l0,0a52.18,52.18,0,0,0,3,5c0,1.92-1.5,7.38,2,12.84A5.63,5.63,0,0,0,186.66,39.2Z" transform="translate(-16.31 -1.47)"/><path id="Path_94" data-name="Path 94" class="cls-10" d="M19.6,186.87,50.69,147,19.6,108.26Z" transform="translate(-16.31 -1.47)"/></g><g id="Group_36" data-name="Group 36"><path id="Path_95" data-name="Path 95" class="cls-4" d="M49,145.18c65.08-88.32,78-78.69,94.38-80.14h.23c14.59.93,17-1,19-3.08s14.45-8.53,19.74-13.59,1.13-19.86-.45-24.2a1.48,1.48,0,0,0-.3-.5c-12.08-13.75-13.33-12.06-13.43-11.19a1.64,1.64,0,0,1-.29.74c-4.54,7.17,1.65,14.68,4.33,17.42a1.6,1.6,0,0,1,.13,2.08c-1.27,1.79-1.58,4.63-1.64,6.52a1.6,1.6,0,0,1-1.64,1.57H169c-6.09-.6-18.46,3.13-20.24,4.46-2,1.49-22.64-9.82-31.78-12.58-8-2.41-18.42,4.13-24.63,10.87A26.29,26.29,0,0,0,89.19,48c-9.84,16.61-71.88,59.41-71.88,59.83v73.3a1.6,1.6,0,0,0,2.85,1L49,145.18" transform="translate(-16.31 -1.47)"/><path id="Path_96" data-name="Path 96" class="cls-4" d="M160.58,63.62s5.13,1,12-3,30.31-13.93,29.63-19.26-2.73-14.13-4.51-17.82-2.18-5.6-4.5-7.78-9.42-16-9.56-12.83c-1.08.27-8.33,4.56,1.9,20.18a1.5,1.5,0,0,1,.26,1c-.16,2-1,6.15,1.1,10.54a1.62,1.62,0,0,1-.75,2.16l-.1,0a3.57,3.57,0,0,0-1.07.65" transform="translate(-16.31 -1.47)"/><path id="Path_97" data-name="Path 97" class="cls-4" d="M167.89,62.73s3.88.68,10.56-2.87a1.66,1.66,0,0,1,.49-.16c6.37-1,18.7-1.34,22.34-3.39a1.85,1.85,0,0,1,.44-.18c2.82-.62,8.49-.73,12.6-9.36a99.33,99.33,0,0,0,6.1-16.33,2,2,0,0,1,.12-.31c.23-.45,1-2.28.76-6.64v-.13c.15-5.48,2.5-16.67,0-15.64-7.94-2.24-12.16,9.23-9.4,17a1.58,1.58,0,0,1-.3,1.57c-1.61,1.83-5.78,6.87-7.18,11.6A1.58,1.58,0,0,1,203,39a2.47,2.47,0,0,0-1.12.39" transform="translate(-16.31 -1.47)"/><path id="Path_98" data-name="Path 98" class="cls-4" d="M212.4,50.07s11.79-6.62,15.91-9.66a1.72,1.72,0,0,1,.42-.23c2.88-1,9.5-3.26,8.11-3.73,0,0-.26-9.88-17.47-2.48" transform="translate(-16.31 -1.47)"/><path id="Path_99" data-name="Path 99" class="cls-4" d="M107.92,33.1s10.91-12.31,37.28-13.27h.13c11.12-1.41,17.44-1.08,21.2-3.28" transform="translate(-16.31 -1.47)"/><path id="Path_100" data-name="Path 100" class="cls-4" d="M170.14,28.05c-2.33,1.18-9.4,6.76-10.85,6.88" transform="translate(-16.31 -1.47)"/><path id="Path_101" data-name="Path 101" class="cls-4" d="M171,36.52a92.86,92.86,0,0,0-14.32,1.3,41,41,0,0,1-10.73.36" transform="translate(-16.31 -1.47)"/><path id="Path_102" data-name="Path 102" class="cls-4" d="M163.45,36.93a13.62,13.62,0,0,1-5.83-3.41" transform="translate(-16.31 -1.47)"/><path id="Path_103" data-name="Path 103" class="cls-4" d="M184.33,21.15" transform="translate(-16.31 -1.47)"/><path id="Path_104" data-name="Path 104" class="cls-4" d="M180.33,11.69" transform="translate(-16.31 -1.47)"/><path id="Path_105" data-name="Path 105" class="cls-4" d="M172,13.45c4.28-1.78,4.87-3.19,7.87-3.07" transform="translate(-16.31 -1.47)"/><path id="Path_106" data-name="Path 106" class="cls-4" d="M180,21.72c2.55-1.39,2.67-2.22,2.82-3.17" transform="translate(-16.31 -1.47)"/></g><line id="Line_7" data-name="Line 7" class="cls-4" x1="151.91" y1="11.3" x2="151.91" y2="102.9"/><line id="Line_8" data-name="Line 8" class="cls-4" x1="167.29" y1="1.46" x2="167.29" y2="83.26"/><line id="Line_9" data-name="Line 9" class="cls-4" x1="220.53" y1="34.98" x2="220.53" y2="61.05"/><line id="Line_10" data-name="Line 10" class="cls-4" x1="205.02" y1="6.24" x2="205.02" y2="116.88"/></g></svg>