<svg id="Layer_1" data-name="Layer 1" xmlns="http://www.w3.org/2000/svg" viewBox="0 0 320.03 267.49"><defs><style>.cls-1{fill:#c8eded;}.cls-2{fill:#deefda;}.cls-3{fill:#b8efac;}.cls-4{fill:#a0cc96;}.cls-5{fill:none;stroke:#231f20;stroke-linecap:round;stroke-linejoin:round;stroke-width:2px;}</style></defs><g id="Group_17" data-name="Group 17"><g id="Group_15" data-name="Group 15"><path id="Path_27" data-name="Path 27" class="cls-1" d="M24,19.37l62.15-5.09L73,41.78Z" transform="translate(-4.24 -13.66)"/><path id="Path_28" data-name="Path 28" class="cls-2" d="M86.13,14.28l141.1,118.13L235,195.28,73,41.78Z" transform="translate(-4.24 -13.66)"/><path id="Path_29" data-name="Path 29" class="cls-1" d="M227.23,132.4l84.09,70.4-41.11,25.79L235,195.28Z" transform="translate(-4.24 -13.66)"/><path id="Path_30" data-name="Path 30" class="cls-2" d="M311.32,202.8l12.95,77-54-51.19Z" transform="translate(-4.24 -13.66)"/><path id="Path_31" data-name="Path 31" class="cls-2" d="M24,19.37,73,41.78,56,105.59Z" transform="translate(-4.24 -13.66)"/><path id="Path_32" data-name="Path 32" class="cls-1" d="M73,41.78,86.31,54.44,73.14,116.75,56,105.6Z" transform="translate(-4.24 -13.66)"/><path id="Path_33" data-name="Path 33" class="cls-3" d="M86.31,54.44l100.3,95-.47,22.82-24.65,1.87L73.14,116.75Z" transform="translate(-4.24 -13.66)"/><path id="Path_34" data-name="Path 34" class="cls-2" d="M186.61,149.41l83.6,79.18-8.57,10.59L161.49,174.1l24.65-1.87Z" transform="translate(-4.24 -13.66)"/><path id="Path_35" data-name="Path 35" class="cls-3" d="M270.22,228.59l54,51.19-62.63-40.6Z" transform="translate(-4.24 -13.66)"/><path id="Path_36" data-name="Path 36" class="cls-3" d="M24,19.37,56,105.6,8.84,117.24Z" transform="translate(-4.24 -13.66)"/><path id="Path_37" data-name="Path 37" class="cls-4" d="M56,105.6,8.84,117.24l54,37.2Z" transform="translate(-4.24 -13.66)"/><path id="Path_38" data-name="Path 38" class="cls-3" d="M56,105.6,261.64,239.18l-25,34.87L62.87,154.44Z" transform="translate(-4.24 -13.66)"/><path id="Path_39" data-name="Path 39" class="cls-4" d="M324.27,279.78l-62.63-40.6-25,34.87Z" transform="translate(-4.24 -13.66)"/></g><g id="Group_16" data-name="Group 16"><path id="Path_40" data-name="Path 40" class="cls-5" d="M20.38,19.75l62.15-5.09,225.2,188.52,12.94,77L233,274.43,5.24,117.62Z" transform="translate(-4.24 -13.66)"/><path id="Path_41" data-name="Path 41" class="cls-5" d="M20.38,19.75l32,86.22L320.67,280.15,69.35,42.16Z" transform="translate(-4.24 -13.66)"/><path id="Path_42" data-name="Path 42" class="cls-5" d="M307.73,203.18,266.62,229,258,239.56l-25,34.87,87.65,5.72Z" transform="translate(-4.24 -13.66)"/><path id="Path_43" data-name="Path 43" class="cls-5" d="M82.53,14.66,69.35,42.16,52.36,106,5.24,117.62,20.38,19.75Z" transform="translate(-4.24 -13.66)"/><path id="Path_44" data-name="Path 44" class="cls-5" d="M52.36,106l6.92,48.85-54-37.2Z" transform="translate(-4.24 -13.66)"/><path id="Path_45" data-name="Path 45" class="cls-5" d="M231.44,195.66l-7.81-62.88,84.1,70.4L266.62,229Z" transform="translate(-4.24 -13.66)"/><path id="Path_46" data-name="Path 46" class="cls-5" d="M69.54,117.13,82.71,54.81,69.35,42.16,52.36,106Z" transform="translate(-4.24 -13.66)"/><path id="Path_47" data-name="Path 47" class="cls-5" d="M157.89,174.48l24.65-1.87.47-22.82-100.3-95L69.54,117.13Z" transform="translate(-4.24 -13.66)"/></g></g></svg>