<svg id="Layer_1" data-name="Layer 1" xmlns="http://www.w3.org/2000/svg" viewBox="0 0 155.61 183.93"><defs><style>.cls-1,.cls-3{fill:none;stroke:#231f20;stroke-linecap:round;stroke-linejoin:round;}.cls-1{stroke-width:2.1px;}.cls-2{fill:#f2f2aa;}.cls-3{stroke-width:2.06px;}</style></defs><circle class="cls-1" cx="65.34" cy="65.34" r="64.29"/><circle class="cls-1" cx="90.27" cy="118.51" r="64.29"/><path class="cls-2" d="M69.85,66A60.93,60.93,0,0,1,64.9,184.15,64.41,64.41,0,1,0,69.85,66Z" transform="translate(-2.77 -7.65)"/><path class="cls-3" d="M69.85,66A60.93,60.93,0,0,1,64.9,184.15,64.41,64.41,0,1,0,69.85,66Z" transform="translate(-2.77 -7.65)"/><path class="cls-2" d="M91.31,12.86a60.93,60.93,0,0,0,5,118.12,64.41,64.41,0,1,1-5-118.12Z" transform="translate(-2.77 -7.65)"/><path class="cls-3" d="M91.31,13a60.93,60.93,0,0,0,5,118.11A64.41,64.41,0,1,1,91.31,13Z" transform="translate(-2.77 -7.65)"/></svg>