<svg id="Layer_1" data-name="Layer 1" xmlns="http://www.w3.org/2000/svg" viewBox="0 0 384.24 260.45"><defs><style>.cls-1,.cls-6{fill:none;}.cls-1{stroke:#f2f2aa;stroke-width:2px;}.cls-1,.cls-2,.cls-3,.cls-4,.cls-5,.cls-6{stroke-linecap:round;}.cls-2{fill:#e0c0d9;}.cls-2,.cls-3,.cls-4,.cls-5,.cls-6{stroke:#231f20;stroke-linejoin:round;stroke-width:2px;}.cls-3{fill:#e7daf2;}.cls-4{fill:#b779f2;}.cls-5{fill:#d4abf4;}</style></defs><g id="Group_113" data-name="Group 113"><path id="Path_201" data-name="Path 201" class="cls-1" d="M-74-131.12S54.57,184.45,192.15,184.45"/><path id="Path_202" data-name="Path 202" class="cls-1" d="M458.42-131.12S329.86,184.45,192.28,184.45"/></g><g id="Group_115" data-name="Group 115"><path id="Path_203" data-name="Path 203" class="cls-2" d="M205.79,206.23,216.65,200,192.1,185.78v12.54Z"/><path id="Path_204" data-name="Path 204" class="cls-3" d="M192.1,198.32V185.78L167.54,200l10.86,6.28Z"/><path id="Path_205" data-name="Path 205" class="cls-4" d="M178.4,206.23,167.54,200v28.35L178.4,222Z"/><path id="Path_206" data-name="Path 206" class="cls-5" d="M167.54,228.31,178.4,222,192.1,230v12.54Z"/><path id="Path_207" data-name="Path 207" class="cls-3" d="M205.79,222l10.86,6.27L192.1,242.49V230Z"/><path id="Path_208" data-name="Path 208" class="cls-3" d="M216.65,200v28.35L205.79,222V206.23Z"/><path id="Path_209" data-name="Path 209" class="cls-5" d="M205.79,206.23l-13.69-7.91-13.7,7.91V222L192.1,230,205.79,222Z"/><path id="Path_210" data-name="Path 210" class="cls-6" d="M216.65,200,192.1,185.78,167.54,200v28.36l24.56,14.18,24.55-14.18Z"/></g></svg>