<svg id="Layer_1" data-name="Layer 1" xmlns="http://www.w3.org/2000/svg" viewBox="0 0 277.38 555.32"><defs><style>.cls-1{fill:#1c1c1c;}.cls-2,.cls-4,.cls-6{fill:none;}.cls-2,.cls-4{stroke:#4b4b4b;}.cls-2{stroke-width:1.32px;}.cls-3{fill:#01211e;}.cls-4,.cls-6{stroke-width:0.07px;}.cls-5{fill:#011a21;}.cls-6{stroke:#707070;}</style></defs><g id="phone"><path id="Exclusion_1" data-name="Exclusion 1" class="cls-1" d="M223.44,545.3H54.13A38.56,38.56,0,0,1,39,542.24a38.94,38.94,0,0,1-12.35-8.32,39.74,39.74,0,0,1-4.75-5.76,39.33,39.33,0,0,1-3.58-6.6,38.56,38.56,0,0,1-3.06-15.13V49.24a38.56,38.56,0,0,1,3.06-15.13,39.33,39.33,0,0,1,3.58-6.6,38.44,38.44,0,0,1,4.74-5.75A39.74,39.74,0,0,1,32.4,17,39.33,39.33,0,0,1,39,13.43a38.56,38.56,0,0,1,15.13-3.06H223.44a38.51,38.51,0,0,1,15.12,3.06A38.8,38.8,0,0,1,262.3,49.24V506.43a38.85,38.85,0,0,1-11.38,27.48,38.75,38.75,0,0,1-12.35,8.33A38.6,38.6,0,0,1,223.44,545.3ZM60.72,16.3a38.56,38.56,0,0,0-15.13,3.06A38,38,0,0,0,39,22.94a39,39,0,0,0-5.76,4.74A38.83,38.83,0,0,0,24.91,40a38.53,38.53,0,0,0-3.06,15.13V495.89a3.29,3.29,0,0,0,3.29,3.29H251.76a3.3,3.3,0,0,0,3.3-3.29V55.17A38.56,38.56,0,0,0,252,40a38.94,38.94,0,0,0-20.68-20.68,38.56,38.56,0,0,0-15.13-3.06Z"/><g id="Ellipse_1" data-name="Ellipse 1"><circle class="cls-1" cx="138.45" cy="520.26" r="15.15"/><circle class="cls-2" cx="138.45" cy="520.26" r="14.49"/></g><path id="Rectangle_3" data-name="Rectangle 3" class="cls-1" d="M98.27,10.37H180a19.12,19.12,0,0,1-19.11,19.11H117.37a19.11,19.11,0,0,1-19.1-19.11Z"/><g id="Ellipse_2" data-name="Ellipse 2"><circle class="cls-3" cx="112.76" cy="20.25" r="4.61"/><circle class="cls-4" cx="112.76" cy="20.25" r="4.58"/></g><g id="Ellipse_3" data-name="Ellipse 3"><circle class="cls-5" cx="165.46" cy="20.25" r="4.61"/><circle class="cls-6" cx="165.46" cy="20.25" r="4.58"/></g><g id="Rectangle_4" data-name="Rectangle 4"><path class="cls-1" d="M125,16.3h28.33a4.28,4.28,0,0,1,4.28,4.28h0a4.28,4.28,0,0,1-4.28,4.28H125a4.27,4.27,0,0,1-4.28-4.28h0A4.28,4.28,0,0,1,125,16.3Z"/><path class="cls-4" d="M125,16.33h28.33a4.26,4.26,0,0,1,4.25,4.25h0a4.25,4.25,0,0,1-4.25,4.25H125a4.25,4.25,0,0,1-4.25-4.25h0A4.25,4.25,0,0,1,125,16.33Z"/></g></g></svg>