<svg id="Layer_1" data-name="Layer 1" xmlns="http://www.w3.org/2000/svg" viewBox="0 0 244.53 203.36"><defs><style>.cls-1{fill:#e7daf2;}.cls-2{fill:none;stroke:#231f20;stroke-linecap:round;stroke-linejoin:round;stroke-width:2px;}.cls-3{fill:#d4abf4;}.cls-4{fill:#f2f2aa;}.cls-5{fill:#b8efac;}</style></defs><g id="Group_44" data-name="Group 44"><g id="Group_39" data-name="Group 39"><path id="Path_107" data-name="Path 107" class="cls-1" d="M87.06,85.63a20.31,20.31,0,0,1,7,5.2c5.7,6.33-2,17.81-5.81,22.69a21.76,21.76,0,0,0-4.7,12.29,19,19,0,0,0,1.32,8.09,2.55,2.55,0,0,0,.39.63c4.85,5.8,6.17,1.11,6.41-.05,0-.19.09-.37.15-.56,5.64-18.11,37.44-46.28,40.44-51.27s8-11.73,15.07-14.07,15.08-2.68,38.2-5,66-5.7,66-5.7V6.25s-91.08,29.16-102.81,30.5-15.41,5.7-20.43,7.37S88.05,59.41,76.5,60.52l-.3,0a13.57,13.57,0,0,0-5.42,2.53A13.74,13.74,0,0,1,62.71,66a60.61,60.61,0,0,0-10.15,1,14.9,14.9,0,0,1-3.58.47,49,49,0,0,0-14.24,2.6A7,7,0,0,1,33,70.4c-9.92.55-9.84,2-9.33,2.68a2.38,2.38,0,0,1,.46.8c1.95,6.21,11.37,3.57,14.86,2.36a7,7,0,0,1,2.82-.37,34.75,34.75,0,0,0,7.06.34h0c-2,0-25.06,10.85-28.69,13a3,3,0,0,1-.45.2c-9.66,3.17-10.28,4.3-9.87,4.67a2.71,2.71,0,0,1,.76,1C11.36,97,14,101.45,21,97.61c9.26-5.21,20.52-6,23.9-6.13a.41.41,0,0,1,.42.4.38.38,0,0,1-.11.3c-3.07,3.2-15.3,16-16.84,18.77a2.19,2.19,0,0,1-.43.57c-9.55,9-8.92,9.49-8,9.6a2.48,2.48,0,0,1,.94.41c5.86,4.35,14.73-4,17.28-8.28a2.31,2.31,0,0,1,.85-.82c4.62-2.65,10.24-8,12.38-10.41a2.17,2.17,0,0,1,1.12-.7c3.68-1,12.63-7.3,15-9a.12.12,0,0,1,.18,0,.14.14,0,0,1,0,.15,34.1,34.1,0,0,0-4,10.59c-1,4.06,3.61,6.09,4.82,9.17s2.7,4.29,3.68,8.12a33.37,33.37,0,0,0,2.85,6.85,35.61,35.61,0,0,1,2.22,5.21c1.94,5.73,2.73,5.91,3,5.47a2.79,2.79,0,0,1,.86-.85,6.37,6.37,0,0,0,3-5.28c.3-3.92-1.86-10.46-3.47-13.67a10.07,10.07,0,0,1-.91-2.71A34.26,34.26,0,0,0,77.09,107a4.18,4.18,0,0,1,.09-4,22.35,22.35,0,0,0,3-9.26,6.32,6.32,0,0,1,1.39-3.47,16.52,16.52,0,0,1,5.5-4.64" transform="translate(-7 -3.51)"/><g id="Group_38" data-name="Group 38"><path id="Path_108" data-name="Path 108" class="cls-2" d="M249.77,56.1s-42.84,3.35-66,5.7-31.16,2.68-38.19,5-12.07,9.05-15.08,14.07-34.8,33.17-40.44,51.27c-.06.19-.1.38-.14.57-.24,1.15-1.57,5.84-6.42.05a2.31,2.31,0,0,1-.38-.64,18.9,18.9,0,0,1-1.33-8.08,21.81,21.81,0,0,1,4.7-12.29c3.79-4.89,11.52-16.37,5.82-22.69a20.47,20.47,0,0,0-7-5.21" transform="translate(-7 -3.51)"/><path id="Path_109" data-name="Path 109" class="cls-2" d="M125.79,77S81.34,83.7,77.67,79c-2.52-3.27-8.74-3.47-12.36-3.28A28,28,0,0,1,57.25,75L57,75a19.47,19.47,0,0,0-5.84-.58A92.37,92.37,0,0,1,40,74.11a7,7,0,0,0-2.82.37c-3.49,1.21-12.91,3.85-14.86-2.36a2.38,2.38,0,0,0-.46-.8c-.51-.63-.6-2.13,9.33-2.68A7,7,0,0,0,33,68.3a49,49,0,0,1,14.24-2.6,14.9,14.9,0,0,0,3.58-.47,60.71,60.71,0,0,1,10.15-1A13.74,13.74,0,0,0,69,61.34a13.63,13.63,0,0,1,5.42-2.53l.3-.05c11.55-1.11,46.77-14.73,51.78-16.4s8.71-6,20.44-7.37S249.77,4.51,249.77,4.51" transform="translate(-7 -3.51)"/><path id="Path_110" data-name="Path 110" class="cls-2" d="M88.64,80.64s-6,4.36-8.83,7.87A6.25,6.25,0,0,0,78.42,92a22.37,22.37,0,0,1-3,9.25,4.2,4.2,0,0,0-.08,4,34.24,34.24,0,0,1,2.72,8.38,10.09,10.09,0,0,0,.92,2.71c1.61,3.21,3.76,9.75,3.46,13.67a6.35,6.35,0,0,1-3,5.28,2.82,2.82,0,0,0-.86.86c-.3.44-1.08.25-3-5.48a37.92,37.92,0,0,0-2.22-5.21,32.6,32.6,0,0,1-2.85-6.85c-1-3.83-2.49-5-3.69-8.12S61,105.37,62,101.31a33.83,33.83,0,0,1,4-10.59.12.12,0,0,0,0-.18.14.14,0,0,0-.15,0c-2.4,1.72-11.34,8-15,9a2.25,2.25,0,0,0-1.12.7C47.56,102.69,42,108,37.32,110.67a2.33,2.33,0,0,0-.85.83c-2.55,4.22-11.42,12.62-17.28,8.27a2.31,2.31,0,0,0-.94-.4c-.95-.12-1.59-.63,8-9.6a2.28,2.28,0,0,0,.44-.58c1.54-2.75,13.77-15.57,16.83-18.77a.4.4,0,0,0,0-.58.42.42,0,0,0-.3-.12c-3.38.13-14.64.92-23.9,6.14-7.07,3.84-9.67-.6-10.42-2.52a2.89,2.89,0,0,0-.76-1c-.42-.38.21-1.5,9.86-4.67a2.28,2.28,0,0,0,.45-.2c3.63-2.17,26.7-13,28.69-13" transform="translate(-7 -3.51)"/><path id="Path_111" data-name="Path 111" class="cls-2" d="M43.17,89.73a48.22,48.22,0,0,0,7.77-.66" transform="translate(-7 -3.51)"/></g></g><g id="Group_43" data-name="Group 43"><g id="Group_40" data-name="Group 40"><path id="Path_112" data-name="Path 112" class="cls-3" d="M24.7,188.68l-1-4a.5.5,0,0,0-1,0l-1.17,4.17a.51.51,0,0,1-.47.37l-10.13.38a.5.5,0,0,0-.48.52.46.46,0,0,0,.17.36l8.15,7.16a.49.49,0,0,1,.15.52l-2,7.12a.51.51,0,0,0,.36.62.5.5,0,0,0,.48-.12l4.6-4.37a.52.52,0,0,1,.69,0l5.2,4.57a.51.51,0,0,0,.71,0,.53.53,0,0,0,.11-.47L27,197.38a.49.49,0,0,1,.14-.49l7.69-7.3a.51.51,0,0,0,0-.72.55.55,0,0,0-.38-.16l-9.22.35A.52.52,0,0,1,24.7,188.68Z" transform="translate(-7 -3.51)"/><path id="Path_113" data-name="Path 113" class="cls-2" d="M15.25,205.87,22,181.69l6.29,24.17L8.48,188.46l26.11-1Z" transform="translate(-7 -3.51)"/></g><g id="Group_41" data-name="Group 41"><path id="Path_114" data-name="Path 114" class="cls-4" d="M19.82,152.15l-.36-1.2a.51.51,0,0,0-.63-.34.55.55,0,0,0-.33.3l-.4,1a.5.5,0,0,1-.52.32L16,152.09a.51.51,0,0,0-.43.84l1.3,1.47a.5.5,0,0,1,.1.52L15.33,159a.51.51,0,0,0,.78.58l2.8-2.13a.5.5,0,0,1,.68.06L20.87,159a.51.51,0,0,0,.72,0,.5.5,0,0,0,.14-.52l-.67-2.24a.51.51,0,0,1,.18-.55l2.57-2a.51.51,0,0,0,.09-.71.48.48,0,0,0-.35-.19l-3.29-.32A.51.51,0,0,1,19.82,152.15Z" transform="translate(-7 -3.51)"/><path id="Path_115" data-name="Path 115" class="cls-2" d="M13.51,159.51l4.35-11.13,3.39,11.13-7.74-8.7,10.15,1Z" transform="translate(-7 -3.51)"/></g><g id="Group_42" data-name="Group 42"><path id="Path_116" data-name="Path 116" class="cls-5" d="M85.15,175l1.71-.76a.5.5,0,0,0,.26-.66.51.51,0,0,0-.38-.3l-2.27-.38a.51.51,0,0,1-.4-.37l-.21-.81a.5.5,0,0,0-.9-.16l-.51.71a.51.51,0,0,1-.5.21l-1.21-.2.65.9a.53.53,0,0,1,0,.59l-1.9,2.7a.5.5,0,0,0,.61.75L82.91,176a.53.53,0,0,1,.62.17l.73,1a.5.5,0,0,0,.71.11.51.51,0,0,0,.19-.53l-.3-1.16A.49.49,0,0,1,85.15,175Z" transform="translate(-7 -3.51)"/><path id="Path_117" data-name="Path 117" class="cls-2" d="M77.26,176.77l5.15-7.29,2.26,8.69-5.1-7.08,7.67,1.29Z" transform="translate(-7 -3.51)"/></g><line id="Line_11" data-name="Line 11" class="cls-2" x1="75.26" y1="125.71" x2="75.26" y2="166.78"/><line id="Line_12" data-name="Line 12" class="cls-2" x1="10.83" y1="115.32" x2="10.83" y2="144.88"/><line id="Line_13" data-name="Line 13" class="cls-2" x1="14.9" y1="67.82" x2="14.9" y2="178.66"/></g></g></svg>