<svg id="Layer_1" data-name="Layer 1" xmlns="http://www.w3.org/2000/svg" viewBox="0 0 292.7 278.62"><defs><style>.cls-1{fill:#e0c0d9;}.cls-2{fill:#e7daf2;}.cls-3{fill:#d4abf4;}.cls-4{fill:#b779f2;}.cls-5{fill:none;stroke:#231f20;stroke-linecap:round;stroke-linejoin:round;stroke-width:2px;}</style></defs><g id="Group_14" data-name="Group 14"><g id="Group_12" data-name="Group 12"><path id="Path_5" data-name="Path 5" class="cls-1" d="M298.46,13.72l-5,65.73-18-1.82Z" transform="translate(-6.61 -8.1)"/><path id="Path_6" data-name="Path 6" class="cls-2" d="M293.45,79.45l-73.71,77.17L180.66,164l94.79-86.36Z" transform="translate(-6.61 -8.1)"/><path id="Path_7" data-name="Path 7" class="cls-1" d="M180.66,164l39.08-7.36L95.48,286.72l-7.27-38.51Z" transform="translate(-6.61 -8.1)"/><path id="Path_8" data-name="Path 8" class="cls-2" d="M88.21,248.21l7.27,38.51-87.72-7.8Z" transform="translate(-6.61 -8.1)"/><path id="Path_9" data-name="Path 9" class="cls-2" d="M88.21,248.21l42.85-39L116.6,152.5,47,227.09Z" transform="translate(-6.61 -8.1)"/><path id="Path_10" data-name="Path 10" class="cls-2" d="M275.44,77.63,131.06,209.17,116.6,152.5l94-100.81Z" transform="translate(-6.61 -8.1)"/><path id="Path_11" data-name="Path 11" class="cls-1" d="M275.44,77.63l23-63.91-87.85,38Z" transform="translate(-6.61 -8.1)"/><path id="Path_12" data-name="Path 12" class="cls-2" d="M210.61,51.69l87.85-38L195.38,32.94Z" transform="translate(-6.61 -8.1)"/><path id="Path_13" data-name="Path 13" class="cls-3" d="M195.38,32.94l15.23,18.75L47,227.09,171.45,64.27Z" transform="translate(-6.61 -8.1)"/><path id="Path_14" data-name="Path 14" class="cls-4" d="M171.45,64.27,47,227.09,16.58,178.93l44.83-48.08Z" transform="translate(-6.61 -8.1)"/><path id="Path_15" data-name="Path 15" class="cls-3" d="M195.38,32.94,298.46,13.72,171,13.34Z" transform="translate(-6.61 -8.1)"/><path id="Path_16" data-name="Path 16" class="cls-4" d="M7.77,278.92l39.28-51.83L16.58,178.93Z" transform="translate(-6.61 -8.1)"/><path id="Path_17" data-name="Path 17" class="cls-3" d="M7.77,278.92l80.44-30.71L47,227.09Z" transform="translate(-6.61 -8.1)"/><path id="Path_18" data-name="Path 18" class="cls-4" d="M61.41,130.85l110-66.58L195.38,33,171,13.34Z" transform="translate(-6.61 -8.1)"/></g><g id="Group_13" data-name="Group 13"><path id="Path_19" data-name="Path 19" class="cls-5" d="M298.31,9.48l-5,65.73-198,207.27-87.71-7.8,8.81-100L170.85,9.1Z" transform="translate(-6.61 -8.1)"/><path id="Path_20" data-name="Path 20" class="cls-5" d="M298.31,9.48l-87.85,38L46.9,222.85,7.61,274.69,88.06,244,275.3,73.39Z" transform="translate(-6.61 -8.1)"/><path id="Path_21" data-name="Path 21" class="cls-5" d="M298.31,9.48,195.24,28.7,46.9,222.85,210.46,47.45Z" transform="translate(-6.61 -8.1)"/><path id="Path_22" data-name="Path 22" class="cls-5" d="M170.85,9.1l24.39,19.6,15.22,18.75L275.3,73.39l18,1.82,5-65.73Z" transform="translate(-6.61 -8.1)"/><path id="Path_23" data-name="Path 23" class="cls-5" d="M95.33,282.48,88.06,244,46.9,222.85,16.43,174.69l-8.81,100Z" transform="translate(-6.61 -8.1)"/><path id="Path_24" data-name="Path 24" class="cls-5" d="M130.91,204.93l-14.46-56.67L46.9,222.85,88.06,244Z" transform="translate(-6.61 -8.1)"/><path id="Path_25" data-name="Path 25" class="cls-5" d="M61.26,126.61,171.3,60l23.94-31.32L170.85,9.1Z" transform="translate(-6.61 -8.1)"/><path id="Path_26" data-name="Path 26" class="cls-5" d="M219.59,152.38l-39.08,7.36L88.06,244l7.27,38.51Z" transform="translate(-6.61 -8.1)"/></g></g></svg>