<svg id="Layer_1" data-name="Layer 1" xmlns="http://www.w3.org/2000/svg" viewBox="0 0 14.7 12.8"><defs><style>.cls-1{fill:#e0c0d9;}.cls-1,.cls-2,.cls-3,.cls-4,.cls-5{stroke:#231f20;stroke-linecap:round;stroke-linejoin:round;}.cls-2{fill:#e7daf2;}.cls-3{fill:#b779f2;}.cls-4{fill:#d4abf4;}.cls-5{fill:none;}</style></defs><g id="Group_115" data-name="Group 115"><path id="Path_203" data-name="Path 203" class="cls-1" d="M15.2,10l1.5-2.6H9.8L11.3,10Z" transform="translate(-5.9 -6.93)"/><path id="Path_204" data-name="Path 204" class="cls-2" d="M11.4,10,9.9,7.43l-3.4,5.9h3Z" transform="translate(-5.9 -6.93)"/><path id="Path_205" data-name="Path 205" class="cls-3" d="M9.5,13.33h-3l3.4,5.9,1.5-2.6Z" transform="translate(-5.9 -6.93)"/><path id="Path_206" data-name="Path 206" class="cls-4" d="M9.9,19.23l1.5-2.6h3.8l1.5,2.6Z" transform="translate(-5.9 -6.93)"/><path id="Path_207" data-name="Path 207" class="cls-2" d="M17.1,13.33h3l-3.4,5.9-1.5-2.6Z" transform="translate(-5.9 -6.93)"/><path id="Path_208" data-name="Path 208" class="cls-2" d="M16.7,7.43l3.4,5.9h-3L15.2,10Z" transform="translate(-5.9 -6.93)"/><path id="Path_209" data-name="Path 209" class="cls-4" d="M15.2,10H11.4l-1.9,3.3,1.9,3.3h3.8l1.9-3.3Z" transform="translate(-5.9 -6.93)"/><path id="Path_210" data-name="Path 210" class="cls-5" d="M16.7,7.43H9.8l-3.4,5.9,3.4,5.9h6.9l3.4-5.9Z" transform="translate(-5.9 -6.93)"/></g></svg>