<svg id="Layer_1" data-name="Layer 1" xmlns="http://www.w3.org/2000/svg" viewBox="0 0 303.4 245.04"><defs><style>.cls-1{fill:#ffe9be;}.cls-2{fill:#fffedc;}.cls-3{fill:#f2f2aa;}.cls-4{fill:#e0de94;}.cls-5{fill:none;stroke:#231f20;stroke-linecap:round;stroke-linejoin:round;stroke-width:2px;}</style></defs><g id="Group_20" data-name="Group 20"><g id="Group_18" data-name="Group 18"><path id="Path_48" data-name="Path 48" class="cls-1" d="M303.33,60.85l-13.09,33L272,83Z" transform="translate(-1.26 -24.89)"/><path id="Path_49" data-name="Path 49" class="cls-2" d="M290.24,93.81,176.8,170,272,83Z" transform="translate(-1.26 -24.89)"/><path id="Path_50" data-name="Path 50" class="cls-1" d="M176.8,170l-22.61,20.67L259.4,119.69l30.84-25.88Z" transform="translate(-1.26 -24.89)"/><path id="Path_51" data-name="Path 51" class="cls-2" d="M76.29,261.82,82,268.58,259.4,119.69,154.19,190.63Z" transform="translate(-1.26 -24.89)"/><path id="Path_52" data-name="Path 52" class="cls-2" d="M76.29,261.82,82,268.58l-80,1.35Z" transform="translate(-1.26 -24.89)"/><path id="Path_53" data-name="Path 53" class="cls-2" d="M228.32,51.57,272,83l31.33-22.11Z" transform="translate(-1.26 -24.89)"/><path id="Path_54" data-name="Path 54" class="cls-3" d="M272,83,137.93,205.48,77.22,193.17,228.32,51.58Z" transform="translate(-1.26 -24.89)"/><path id="Path_55" data-name="Path 55" class="cls-2" d="M137.93,205.48,76.29,261.82,46.85,221.63l30.37-28.46Z" transform="translate(-1.26 -24.89)"/><path id="Path_56" data-name="Path 56" class="cls-3" d="M76.29,261.82,1.93,269.93l44.92-48.3Z" transform="translate(-1.26 -24.89)"/><path id="Path_57" data-name="Path 57" class="cls-3" d="M228.32,51.57l75,9.28L210,29.71Z" transform="translate(-1.26 -24.89)"/><path id="Path_58" data-name="Path 58" class="cls-4" d="M177.21,99.46l51.11-47.89L210,29.71,197,42.41Z" transform="translate(-1.26 -24.89)"/><path id="Path_59" data-name="Path 59" class="cls-3" d="M42.41,194l4.44,27.67L177.22,99.46l19.8-57Z" transform="translate(-1.26 -24.89)"/><path id="Path_60" data-name="Path 60" class="cls-4" d="M1.93,269.93l44.92-48.3L42.41,194Z" transform="translate(-1.26 -24.89)"/></g><g id="Group_19" data-name="Group 19"><path id="Path_61" data-name="Path 61" class="cls-5" d="M2.26,266.1l40.48-76L210.31,25.89,303.66,57,290.58,90,82.3,264.75Z" transform="translate(-1.26 -24.89)"/><path id="Path_62" data-name="Path 62" class="cls-5" d="M303.66,57l-75-9.28L47.19,217.81,2.26,266.1l40.49-76L210.31,25.89Z" transform="translate(-1.26 -24.89)"/><path id="Path_63" data-name="Path 63" class="cls-5" d="M303.66,57,272.32,79.14,76.63,258,2.26,266.1l80-1.35L290.58,90Z" transform="translate(-1.26 -24.89)"/><path id="Path_64" data-name="Path 64" class="cls-5" d="M290.58,90,272.33,79.14,228.65,47.75,210.31,25.89,303.66,57Z" transform="translate(-1.26 -24.89)"/><path id="Path_65" data-name="Path 65" class="cls-5" d="M82.3,264.76,76.63,258,47.19,217.81l-4.44-27.67-40.48,76Z" transform="translate(-1.26 -24.89)"/><path id="Path_66" data-name="Path 66" class="cls-5" d="M290.58,90,177.13,166.14l95.2-87Z" transform="translate(-1.26 -24.89)"/><path id="Path_67" data-name="Path 67" class="cls-5" d="M290.58,90l-30.85,25.88L154.52,186.81l22.61-20.67Z" transform="translate(-1.26 -24.89)"/><path id="Path_68" data-name="Path 68" class="cls-5" d="M77.56,189.35l60.71,12.31L76.63,258,47.19,217.81Z" transform="translate(-1.26 -24.89)"/><path id="Path_69" data-name="Path 69" class="cls-5" d="M177.55,95.64l19.8-57,13-12.7,18.34,21.86Z" transform="translate(-1.26 -24.89)"/></g></g></svg>