<svg id="Layer_1" data-name="Layer 1" xmlns="http://www.w3.org/2000/svg" viewBox="0 0 245.83 175.09"><defs><style>.cls-1{fill:#fffedc;}.cls-2{fill:none;stroke:#231f20;stroke-linecap:round;stroke-linejoin:round;stroke-width:2px;}.cls-3{fill:#e7daf2;}.cls-4{fill:#e0de94;}.cls-5{fill:#deefda;}.cls-6{fill:#d4abf4;}</style></defs><g id="Group_33" data-name="Group 33"><g id="Group_26" data-name="Group 26"><path id="Path_70" data-name="Path 70" class="cls-1" d="M33,141.15l-1.35-4.88-2,4.88h-6l4,4.92-4,10,7.24-6,6.83,8.35-3.14-11.42,7-5.8Z" transform="translate(-6.35 -6.52)"/><path id="Path_71" data-name="Path 71" class="cls-2" d="M22.42,154.81l8-19.76,6.08,22.1L22.42,139.93H40.34Z" transform="translate(-6.35 -6.52)"/></g><g id="Group_27" data-name="Group 27"><path id="Path_72" data-name="Path 72" class="cls-3" d="M76.81,145.18l3.71,4.14-.9-4.33,4.74-.31-5.21-2L78.6,140l-2,1.68L72.2,140,75,143.13l-2.77,2.35Z" transform="translate(-6.35 -6.52)"/><path id="Path_73" data-name="Path 73" class="cls-2" d="M71,144.26l6.4-5.44,1.92,9.28L71,138.82l12.15,4.64Z" transform="translate(-6.35 -6.52)"/></g><g id="Group_28" data-name="Group 28"><path id="Path_74" data-name="Path 74" class="cls-4" d="M13.68,110.37v3.36l1.49-1.83,4,4.07-2.34-6.06,2.34-2.9-3.72-.67-1.72-4.45V106l-5.12-.93Z" transform="translate(-6.35 -6.52)"/><path id="Path_75" data-name="Path 75" class="cls-2" d="M12.46,112.52V100.68l5.44,14.07L7.35,103.88,17.9,105.8Z" transform="translate(-6.35 -6.52)"/></g><g id="Group_29" data-name="Group 29"><path id="Path_76" data-name="Path 76" class="cls-5" d="M68.3,121.19l4.83-1.78-6.49-2.14-1.25-3-1,2.24-6.8-2.24L63.42,119l-2,4.78,5.48-2,2.51,2Z" transform="translate(-6.35 -6.52)"/><path id="Path_77" data-name="Path 77" class="cls-2" d="M59.61,122l4-9.43,4,9.43-11.74-9.43,15.5,5.11Z" transform="translate(-6.35 -6.52)"/></g><g id="Group_30" data-name="Group 30"><path id="Path_78" data-name="Path 78" class="cls-6" d="M19.88,176.89l-1.46-2.95-1.23,2.95H13l3.6,1.46-1.36,3.26,3.83-2.26,2.57,1-1-2,2.58-1.52Z" transform="translate(-6.35 -6.52)"/><path id="Path_79" data-name="Path 79" class="cls-2" d="M14,180.39l3.2-7.67,3.2,6.45-8.64-3.5H22Z" transform="translate(-6.35 -6.52)"/></g><g id="Group_32" data-name="Group 32"><path id="Path_80" data-name="Path 80" class="cls-1" d="M30.18,70.93c-1.32-2.3,7.15.82,11.59-.16a21.19,21.19,0,0,1,6.86-.8,23.38,23.38,0,0,0,4.87-.4c8.25-1.52,19.08-.47,22.22-.1-4.13-.64-16.29-3.69-16.51-4.13s-6.11-.51-6.94-1-3.27-.62-23.4-1.91C8.27,60,11.91,50.62,12.22,49.32c-1.92-1.94,11.51,1.3,13.35,1.45s7.75-.12,9.47.38,15.09,0,20.28-.55a72.49,72.49,0,0,1,12.5.4,80.09,80.09,0,0,0-9.22-6.23s-14.35-8.11-20-12.25C11,20,18.15,13.6,17,10.31s13.15,4.21,13.15,4.21l9.68,4.56s12.5,5.16,22.84,8.18c5.64,1.79,7.74,5.29,10.72,8a6,6,0,0,0,1.09.78c1.79,1,5.87,3.7,9.79,6.3a67.7,67.7,0,0,0,19.07,8.73c2.55.71,5.34,1.52,8.08,2.39,8.72,2.75,54.63,2.72,62.6-.27s48.82-10.27,48.82-10.27l28.13,35.77c-34.73-2.81-83,20.23-90.36,23.87-12.52,6.4-28,8.15-29.57,8.21-2.36.09-8.13,3.74-17.09,8.13-7.28,5.94-10.9,6.13-10.9,6.13-3.44-1.28-12.9,1.06-12.9,1.06-16.24,4.14-14.94-3.63-13-5.37,2.33-9.56,27.42-17.58,27.42-17.58,11.61-9.13,5.43-9.4,1.93-14.14a39.17,39.17,0,0,1-9.67,2.18c-8,3.38-12.94,3.66-12.94,3.66s-1.18,1-8.1,2.5C61.42,101.65,63.32,93,63.32,93c-1.84-.1,6.46-2.75,8.24-3.16s2.42-2.68,8.79-3.44,11.52-5.24,11.52-5.24c-9.53,2-14.75,1.28-17.24.52a18.85,18.85,0,0,0-5.37-.87L55.58,80.6l-7.86.28c-.3,0-.61,0-.91.07-1.87.19-9.64.78-14-1.92C27.84,75.94,27.77,72.41,30.18,70.93ZM106,88.3c-1.66-1.89-5.14-5.1-9.2-8.83L106.43,89c-.16-.23-.32-.46-.47-.7ZM77.8,60.81,77.11,60a54.28,54.28,0,0,0-9.28-9Z" transform="translate(-6.35 -6.52)"/><g id="Group_31" data-name="Group 31"><path id="Path_81" data-name="Path 81" class="cls-2" d="M159.86,101.1s53.63-27.4,91.31-24.34L223,41s-40.86,7.29-48.82,10.27-53.87,3-62.6.26c-2.74-.86-5.53-1.68-8.07-2.39A67.48,67.48,0,0,1,84.47,40.4c-3.92-2.59-8-5.26-9.79-6.29a6,6,0,0,1-1.09-.78c-3-2.74-5.07-6.23-10.71-8C52.53,22.28,40,17.13,40,17.13l-9.69-4.57S16,5.06,17.2,8.35s-6,9.66,21.69,22.21c5.6,4.14,20,12.26,20,12.26S70.47,49.27,77.34,58s24.4,23.28,28.85,28.35c3.36,5.46,10.72,5.29-1.44,14.85,0,0-25.09,8-27.42,17.59-1.91,1.73-3.21,9.5,13,5.37,0,0,9.46-2.34,12.9-1.06,0,0,3.62-.19,10.9-6.14,9-4.38,14.72-8,17.09-8.12,2.2-.09,32.41-3.59,42.45-18.86" transform="translate(-6.35 -6.52)"/><path id="Path_82" data-name="Path 82" class="cls-2" d="M68.06,49a72.52,72.52,0,0,0-12.5-.4c-5.19.5-18.56,1.06-20.28.55s-7.63-.24-9.47-.39-15.28-3.38-13.35-1.44c-.3,1.3-4,10.67,16.64,13.06,20.14,1.29,22.59,1.36,23.41,1.91s6.7.57,6.94,1.05,14.6,4.05,17.4,4.23c0,0-13.36-1.8-23.11,0a23.38,23.38,0,0,1-4.87.4,20.89,20.89,0,0,0-6.86.8c-4.44,1-12.9-2.14-11.59.16-2.41,1.48-2.34,5,2.64,8.1,4.36,2.7,12.13,2.1,14,1.91.3,0,.61,0,.91-.06l7.86-.28,13.68.16a19.15,19.15,0,0,1,5.37.87c2.49.77,7.71,1.5,17.25-.52,0,0-5.17,4.48-11.53,5.24s-7,3-8.79,3.45S61.73,90.9,63.57,91c0,0-1.9,8.68,12.41,4.39,6.92-1.46,8.1-2.5,8.1-2.5s5-.27,12.94-3.65a39.19,39.19,0,0,0,9.67-2.19" transform="translate(-6.35 -6.52)"/></g></g><line id="Line_2" data-name="Line 2" class="cls-2" x1="70.99" y1="112.27" x2="70.99" y2="132.3"/><line id="Line_3" data-name="Line 3" class="cls-2" x1="57.22" y1="84.49" x2="57.22" y2="107.78"/><line id="Line_4" data-name="Line 4" class="cls-2" x1="24.07" y1="62.46" x2="24.07" y2="128.53"/><line id="Line_5" data-name="Line 5" class="cls-2" x1="10.86" y1="1.84" x2="10.86" y2="166.2"/><line id="Line_6" data-name="Line 6" class="cls-2" x1="6.11" y1="40.84" x2="6.11" y2="94.77"/></g></svg>